<?xml version="1.0" encoding="UTF-8"?>
<!DOCTYPE svg PUBLIC "-//W3C//DTD SVG 1.1//EN" "http://www.w3.org/Graphics/SVG/1.1/DTD/svg11.dtd">
<!-- Creator: CorelDRAW X7 -->
<svg xmlns="http://www.w3.org/2000/svg" xml:space="preserve" width="24.66mm" height="5.8562mm" version="1.1" style="shape-rendering:geometricPrecision; text-rendering:geometricPrecision; image-rendering:optimizeQuality; fill-rule:evenodd; clip-rule:evenodd"
viewBox="0 0 641 152"
 xmlns:xlink="http://www.w3.org/1999/xlink">
 <defs>
  <style type="text/css">
   <![CDATA[
    .fil2 {fill:blue}
    .fil1 {fill:aqua}
    .fil0 {fill:white}
   ]]>
  </style>
 </defs>
 <g id="Layer_x0020_1">
  <metadata id="CorelCorpID_0Corel-Layer"/>
  <g id="_419731224">
   <path class="fil0" d="M23 1l-1 -1 24 0 25 51 25 -51 24 0 0 1 0 150 -22 0 0 -106 -27 55 -27 -55 0 106 -21 0 0 -150zm194 21c-15,0 -28,5 -38,15 -11,11 -16,23 -16,38 0,15 5,28 16,38 10,11 23,16 38,16 14,0 27,-5 38,-16 10,-10 15,-23 15,-38 0,-15 -5,-27 -15,-38 -11,-10 -24,-15 -38,-15zm0 129c-21,0 -39,-8 -54,-23 -14,-14 -22,-32 -22,-53 0,-21 8,-38 22,-53 15,-15 33,-22 54,-22 20,0 38,7 53,22 14,15 22,32 22,53 0,21 -8,39 -22,53 -15,15 -33,23 -53,23zm118 -65l11 0c8,0 16,-3 22,-9 7,-7 10,-14 10,-23 0,-9 -3,-17 -10,-23 -6,-6 -14,-9 -22,-9l-11 0 0 64zm-22 -86l33 0c14,0 27,5 38,16 10,10 15,23 15,38 0,15 -5,27 -15,38 -4,3 -8,6 -12,8 4,6 6,12 6,18 0,9 -3,17 -10,23 -6,6 -14,10 -22,10l-33 0 0 -151zm22 108l0 21 11 0c3,0 5,-1 7,-3 2,-2 3,-5 3,-8 0,-3 -1,-5 -3,-7 -2,-2 -4,-3 -7,-3l-11 0zm61 43l43 -151 11 0 43 151 -22 0c-7,-22 -16,-33 -27,-33 -11,0 -20,11 -27,33l-21 0zm48 -97l-16 54c11,-8 22,-8 32,0l-16 -54z"/>
   <path class="fil1" d="M506 152c-4,0 -7,-1 -8,-3 -2,-2 -3,-5 -3,-8l0 -92c0,-3 1,-6 3,-8 1,-2 4,-4 8,-4 4,0 6,2 8,4 2,2 3,5 3,8l0 56c5,-4 9,-7 14,-11 4,-4 6,-8 8,-12 1,-3 3,-5 6,-7 2,-1 5,-1 8,1 5,2 7,5 6,9 0,4 -1,8 -5,12 -3,5 -6,9 -11,12 6,2 10,5 14,11 3,5 5,12 5,22 0,7 -3,10 -10,10 -8,0 -11,-3 -11,-10 0,-7 -1,-12 -4,-16 -2,-3 -5,-5 -9,-5 -3,0 -6,1 -8,4 -2,3 -3,7 -3,13 0,6 -1,10 -3,12 -2,1 -4,2 -8,2zm102 0c-6,0 -12,-1 -17,-4 -5,-2 -9,-6 -11,-11 -3,-5 -5,-11 -5,-17l0 -35c0,-7 4,-10 11,-10 7,0 11,3 11,10l0 35c0,4 1,8 3,11 2,2 5,3 8,3 4,0 7,-1 9,-3 2,-3 3,-7 3,-11l0 -35c0,-7 3,-10 11,-10 7,0 10,3 10,10l0 35c0,6 -1,12 -4,17 -2,5 -6,9 -11,11 -5,3 -11,4 -18,4z"/>
   <rect class="fil1" y="42" width="243.601" height="64.6843" rx="32" ry="32"/>
   <path class="fil2" d="M43 100c-1,0 -2,0 -3,-1 0,-1 -1,-1 -1,-2l0 -32c0,-4 2,-8 4,-11 3,-2 7,-3 12,-3 13,0 19,8 19,25 0,8 -1,14 -5,18 -3,4 -8,6 -15,6l-11 0zm6 -8l5 0c4,0 6,-1 8,-4 1,-3 2,-7 2,-13 0,-6 0,-10 -2,-12 -1,-3 -4,-4 -7,-4 -4,0 -6,2 -6,4l0 29zm48 9c-3,0 -6,-1 -8,-2 -3,-1 -5,-3 -6,-5 -1,-3 -2,-5 -2,-8l0 -17c0,-3 2,-4 5,-4 4,0 5,1 5,4l0 16c0,3 1,4 2,6 1,1 2,1 4,1 1,0 3,0 4,-1 1,-2 1,-3 1,-6l0 -16c0,-3 2,-4 5,-4 3,0 5,1 5,4l0 17c0,3 -1,5 -2,8 -1,2 -3,4 -5,5 -3,1 -5,2 -8,2zm27 0c-3,0 -5,-2 -5,-5l0 -17c0,-4 2,-8 4,-10 3,-3 7,-4 12,-4 4,0 8,1 11,4 3,2 4,6 4,10l0 17c0,3 -1,5 -5,5 -3,0 -5,-2 -5,-5l0 -16c0,-2 0,-4 -1,-5 -1,-1 -3,-2 -4,-2 -2,0 -3,1 -4,2 -1,1 -2,3 -2,5l0 16c0,3 -2,5 -5,5zm39 -42c-2,0 -3,-1 -4,-2 -2,-1 -2,-2 -2,-4 0,-2 0,-3 2,-4 1,-1 2,-2 4,-2 2,0 3,1 4,2 1,1 2,2 2,4 0,2 -1,3 -2,4 -1,1 -2,2 -4,2zm5 37c0,3 -2,5 -5,5 -2,0 -3,-1 -4,-1 -1,-1 -1,-2 -1,-4l0 -27c0,-1 0,-2 1,-3 1,-1 2,-1 4,-1 2,0 3,0 4,1 0,1 1,2 1,3l0 27zm21 5c-5,0 -8,-1 -11,-4 -3,-2 -4,-5 -4,-8 0,-4 2,-7 5,-9 4,-2 9,-2 15,-2 0,-2 -1,-3 -2,-4 -1,-1 -2,-1 -3,-1 -2,0 -3,0 -3,0 -1,0 -2,0 -2,0 -1,1 -2,1 -3,1 -1,0 -2,-1 -3,-1 -1,0 -1,-1 -1,-3 0,-2 1,-3 3,-4 1,-1 4,-1 7,-1 6,0 10,1 13,5 3,3 4,7 4,13 0,6 -1,10 -3,13 -2,3 -6,5 -12,5zm-5 -12c0,3 2,4 6,4 1,0 2,0 2,-1 1,0 1,-1 2,-2 0,-1 0,-3 0,-6 0,0 0,1 -1,1 0,0 0,0 -1,0 -3,0 -5,0 -6,1 -1,0 -2,1 -2,3z"/>
  </g>
 </g>
</svg>
