<?xml version="1.0" encoding="UTF-8"?>
<!DOCTYPE svg PUBLIC "-//W3C//DTD SVG 1.1//EN" "http://www.w3.org/Graphics/SVG/1.1/DTD/svg11.dtd">
<!-- Creator: CorelDRAW X7 -->
<svg xmlns="http://www.w3.org/2000/svg" xml:space="preserve" width="24.66mm" height="5.8562mm" version="1.1" style="shape-rendering:geometricPrecision; text-rendering:geometricPrecision; image-rendering:optimizeQuality; fill-rule:evenodd; clip-rule:evenodd"
viewBox="0 0 10191 2420"
 xmlns:xlink="http://www.w3.org/1999/xlink">
 <defs>
  <style type="text/css">
   <![CDATA[
    .fil1 {fill:blue}
    .fil0 {fill:red}
    .fil2 {fill:white}
   ]]>
  </style>
 </defs>
 <g id="Layer_x0020_1">
  <metadata id="CorelCorpID_0Corel-Layer"/>
  <g id="_418532264">
   <path class="fil0" d="M365 17l-8 -17 381 0 396 808 397 -808 380 0 -8 17 0 2375 -342 0 0 -1678 -427 870 -427 -870 0 1678 -342 0 0 -2375zm3076 325c-236,0 -437,83 -604,250 -167,167 -250,368 -250,604 0,236 83,437 250,604 167,167 368,250 604,250 236,0 437,-83 604,-250 167,-167 250,-368 250,-604 0,-236 -83,-437 -250,-604 -167,-167 -368,-250 -604,-250zm0 2050c-331,0 -612,-117 -846,-350 -233,-234 -350,-515 -350,-846 0,-330 117,-612 350,-846 234,-233 515,-350 846,-350 330,0 612,117 846,350 233,234 350,516 350,846 0,331 -117,612 -350,846 -234,233 -516,350 -846,350zm1879 -1025l171 0c141,0 262,-50 362,-151 101,-100 151,-221 151,-362 0,-141 -50,-262 -151,-362 -100,-100 -221,-150 -362,-150l-171 0 0 1025zm-341 -1367l512 0c236,0 437,83 604,251 167,167 251,368 251,603 0,237 -84,437 -250,603 -56,56 -115,102 -178,139 57,83 86,177 86,284 0,141 -50,261 -151,362 -100,100 -221,150 -362,150l-512 0 0 -2392zm341 1709l0 341 171 0c47,0 87,-17 120,-50 34,-34 51,-74 51,-120 0,-47 -17,-87 -51,-121 -33,-33 -73,-50 -120,-50l-171 0zm970 683l683 -2392 170 0 684 2392 -342 0c-114,-342 -256,-512 -427,-512 -171,0 -313,170 -427,512l-341 0zm768 -1538l-256 855c171,-114 341,-114 512,0l-256 -855z"/>
   <path class="fil1" d="M8037 2420c-62,0 -105,-16 -132,-50 -26,-33 -39,-78 -39,-135l0 -1455c0,-57 13,-102 39,-135 27,-33 70,-49 132,-49 62,0 105,16 132,49 26,33 39,78 39,135l0 882c83,-51 158,-108 222,-172 65,-64 109,-125 133,-184 22,-53 54,-90 95,-109 41,-19 86,-16 135,8 68,33 99,83 95,151 -2,57 -28,121 -77,191 -50,70 -111,131 -184,181 92,32 166,89 222,172 56,83 84,203 84,359 0,107 -56,161 -169,161 -115,0 -173,-54 -173,-161 0,-115 -18,-200 -54,-254 -36,-53 -85,-80 -145,-80 -55,0 -99,20 -133,61 -34,42 -51,113 -51,214 0,91 -14,151 -41,179 -26,27 -70,41 -130,41zm1630 0c-104,0 -196,-21 -275,-64 -79,-43 -140,-103 -183,-180 -44,-77 -65,-167 -65,-270l0 -555c0,-107 56,-161 170,-161 114,0 171,54 171,161l0 550c0,74 16,132 47,173 32,41 77,62 135,62 59,0 104,-21 135,-62 32,-41 48,-99 48,-173l0 -550c0,-107 57,-161 170,-161 114,0 171,54 171,161l0 555c0,103 -22,193 -65,270 -44,77 -104,137 -183,180 -78,43 -170,64 -276,64z"/>
   <rect class="fil1" y="660" width="3871" height="1028" rx="514" ry="514"/>
   <path class="fil2" d="M678 1591c-14,0 -26,-5 -36,-16 -10,-11 -15,-24 -15,-40l0 -494c0,-77 21,-136 62,-176 42,-41 102,-61 181,-61 207,0 311,134 311,402 0,130 -26,227 -78,291 -52,63 -131,94 -238,94l-187 0zm108 -130l79 0c54,0 94,-22 119,-64 25,-43 37,-111 37,-206 0,-90 -11,-154 -34,-192 -22,-38 -61,-57 -114,-57 -58,0 -87,21 -87,63l0 456zm749 139c-49,0 -92,-10 -129,-30 -36,-20 -65,-48 -85,-84 -21,-36 -31,-78 -31,-126l0 -259c0,-51 27,-76 80,-76 53,0 80,25 80,76l0 257c0,34 7,61 22,80 15,20 36,29 63,29 27,0 48,-9 63,-29 15,-19 22,-46 22,-80l0 -257c0,-51 27,-76 80,-76 53,0 80,25 80,76l0 259c0,48 -10,90 -31,126 -20,36 -48,64 -85,84 -37,20 -80,30 -129,30zm437 0c-53,0 -79,-25 -79,-75l0 -266c0,-71 22,-127 68,-168 45,-42 105,-62 180,-62 74,0 134,20 180,62 45,41 68,97 68,168l0 266c0,50 -27,75 -80,75 -53,0 -80,-25 -80,-75l0 -257c0,-35 -7,-61 -23,-79 -15,-18 -37,-28 -65,-28 -28,0 -50,10 -65,28 -16,18 -24,44 -24,79l0 257c0,50 -26,75 -80,75zm615 -667c-27,0 -50,-9 -68,-26 -19,-18 -28,-40 -28,-66 0,-27 9,-49 28,-67 18,-18 41,-27 68,-27 28,0 51,9 70,27 18,18 27,40 27,67 0,26 -9,48 -27,66 -19,17 -42,26 -70,26zm80 593c0,49 -26,74 -78,74 -25,0 -45,-6 -59,-18 -15,-12 -22,-31 -22,-56l0 -422c0,-24 6,-42 18,-56 12,-13 32,-19 61,-19 29,0 50,6 62,19 12,14 18,32 18,56l0 422zm336 74c-74,0 -132,-17 -173,-51 -41,-35 -62,-79 -62,-134 0,-64 27,-111 81,-139 55,-29 134,-39 239,-30 -5,-34 -16,-57 -32,-70 -16,-12 -36,-18 -59,-18 -18,0 -34,1 -46,3 -12,2 -23,4 -34,6 -10,2 -23,3 -37,3 -20,0 -36,-3 -48,-10 -12,-7 -18,-21 -18,-43 0,-30 13,-52 40,-67 26,-14 67,-21 124,-21 90,0 157,25 201,77 43,51 65,119 65,205 0,99 -18,172 -54,219 -35,47 -98,70 -187,70zm-76 -185c0,42 29,63 86,63 18,0 32,-3 43,-10 10,-6 18,-20 23,-40 4,-20 8,-49 10,-89 -4,3 -8,6 -14,7 -6,2 -12,3 -18,3 -49,0 -83,4 -101,14 -19,9 -29,26 -29,52z"/>
  </g>
 </g>
</svg>
