<?xml version="1.0" encoding="UTF-8"?>
<!DOCTYPE svg PUBLIC "-//W3C//DTD SVG 1.1//EN" "http://www.w3.org/Graphics/SVG/1.1/DTD/svg11.dtd">
<!-- Creator: CorelDRAW X7 -->
<svg xmlns="http://www.w3.org/2000/svg" xml:space="preserve" width="7.7277mm" height="5.7884mm" version="1.1" style="shape-rendering:geometricPrecision; text-rendering:geometricPrecision; image-rendering:optimizeQuality; fill-rule:evenodd; clip-rule:evenodd"
viewBox="0 0 134 100"
 xmlns:xlink="http://www.w3.org/1999/xlink">
 <defs>
  <style type="text/css">
   <![CDATA[
    .fil1 {fill:blue}
    .fil0 {fill:red}
    .fil2 {fill:white}
   ]]>
  </style>
 </defs>
 <g id="Layer_x0020_1">
  <metadata id="CorelCorpID_0Corel-Layer"/>
  <g id="_416203480">
   <polygon class="fil0" points="35,1 35,0 51,0 67,34 84,0 100,0 99,1 99,100 85,100 85,30 67,66 49,30 49,100 35,100 "/>
   <rect class="fil1" y="44" width="133.635" height="27.3654" rx="14" ry="14"/>
   <path class="fil2" d="M31 70c-1,0 -1,0 -1,-1 -1,0 -1,0 -1,-1l0 -14c0,-2 1,-4 2,-5 1,-1 3,-2 5,-2 6,0 9,4 9,12 0,3 -1,6 -2,8 -2,2 -4,3 -7,3l-5 0zm3 -4l2 0c2,0 3,-1 3,-2 1,-1 1,-3 1,-6 0,-2 0,-4 -1,-5 0,-1 -1,-2 -3,-2 -1,0 -2,1 -2,2l0 13zm21 4c-1,0 -2,0 -3,-1 -1,0 -2,-1 -3,-2 0,-1 -1,-2 -1,-4l0 -7c0,-2 1,-2 3,-2 1,0 2,0 2,2l0 7c0,1 0,2 0,2 1,1 1,1 2,1 1,0 2,0 2,-1 1,0 1,-1 1,-2l0 -7c0,-2 1,-2 2,-2 2,0 2,0 2,2l0 7c0,2 0,3 -1,4 0,1 -1,2 -2,2 -1,1 -2,1 -4,1zm13 0c-2,0 -2,-1 -2,-2l0 -8c0,-2 0,-3 2,-5 1,-1 3,-1 5,-1 2,0 4,0 5,1 1,2 2,3 2,5l0 8c0,1 -1,2 -2,2 -2,0 -3,-1 -3,-2l0 -8c0,-1 0,-1 0,-2 -1,0 -1,-1 -2,-1 -1,0 -2,1 -2,1 -1,1 -1,1 -1,2l0 8c0,1 -1,2 -2,2zm18 -19c-1,0 -2,0 -2,-1 -1,0 -1,-1 -1,-2 0,-1 0,-1 1,-2 0,0 1,-1 2,-1 0,0 1,1 2,1 0,1 0,1 0,2 0,1 0,2 0,2 -1,1 -2,1 -2,1zm2 17c0,1 -1,2 -2,2 -1,0 -2,0 -2,0 0,-1 -1,-1 -1,-2l0 -12c0,-1 0,-1 1,-2 0,0 1,0 2,0 0,0 1,0 1,0 1,1 1,1 1,2l0 12zm10 2c-3,0 -4,0 -5,-1 -2,-1 -2,-3 -2,-4 0,-2 1,-3 2,-4 2,-1 4,-1 7,-1 0,-1 0,-2 -1,-2 0,0 -1,-1 -2,-1 0,0 -1,0 -1,0 0,0 -1,1 -1,1 0,0 -1,0 -1,0 -1,0 -1,0 -1,-1 -1,0 -1,0 -1,-1 0,-1 1,-1 1,-2 1,0 2,0 4,0 2,0 4,0 6,2 1,1 2,3 2,6 0,3 -1,5 -2,6 -1,1 -3,2 -5,2zm-3 -5c0,1 1,2 3,2 0,0 1,-1 1,-1 0,0 1,0 1,-1 0,0 0,-1 0,-2 0,0 0,0 0,0 -1,0 -1,0 -1,0 -1,0 -2,0 -3,0 0,0 -1,1 -1,2z"/>
  </g>
 </g>
</svg>
