<?xml version="1.0" encoding="UTF-8"?>
<!DOCTYPE svg PUBLIC "-//W3C//DTD SVG 1.1//EN" "http://www.w3.org/Graphics/SVG/1.1/DTD/svg11.dtd">
<!-- Creator: CorelDRAW X7 -->
<svg xmlns="http://www.w3.org/2000/svg" xml:space="preserve" width="19.4551mm" height="25.8299mm" version="1.1" style="shape-rendering:geometricPrecision; text-rendering:geometricPrecision; image-rendering:optimizeQuality; fill-rule:evenodd; clip-rule:evenodd"
viewBox="0 0 2649 3517"
 xmlns:xlink="http://www.w3.org/1999/xlink">
 <defs>
  <style type="text/css">
   <![CDATA[
    .fil0 {fill:red}
   ]]>
  </style>
 </defs>
 <g id="Layer_x0020_1">
  <metadata id="CorelCorpID_0Corel-Layer"/>
  <path class="fil0" d="M107 303l1457 1457 -1452 1453 -106 106c-4,13 -6,28 -6,43 0,86 70,155 155,155 22,0 42,-4 61,-12l82 -82 1663 -1663 -1660 -1660 -91 -90c-17,-6 -35,-10 -55,-10 -85,0 -155,70 -155,155 0,17 3,33 8,49l99 99z"/>
  <path class="fil0" d="M2542 303l-1457 1457 1452 1453 106 106c4,13 6,28 6,43 0,86 -69,155 -155,155 -22,0 -42,-4 -61,-12l-82 -82 -1662 -1663 1660 -1660 90 -90c17,-6 36,-10 55,-10 86,0 155,70 155,155 0,17 -2,33 -7,49l-100 99z"/>
 </g>
</svg>
