<?xml version="1.0" encoding="UTF-8"?>
<!DOCTYPE svg PUBLIC "-//W3C//DTD SVG 1.1//EN" "http://www.w3.org/Graphics/SVG/1.1/DTD/svg11.dtd">
<!-- Creator: CorelDRAW X7 -->
<svg xmlns="http://www.w3.org/2000/svg" xml:space="preserve" width="20.639mm" height="25.8299mm" version="1.1" style="shape-rendering:geometricPrecision; text-rendering:geometricPrecision; image-rendering:optimizeQuality; fill-rule:evenodd; clip-rule:evenodd"
viewBox="0 0 529 662"
 xmlns:xlink="http://www.w3.org/1999/xlink">
 <defs>
  <style type="text/css">
   <![CDATA[
    .fil0 {fill:#000D9C}
   ]]>
  </style>
 </defs>
 <g id="Layer_x0020_1">
  <metadata id="CorelCorpID_0Corel-Layer"/>
  <path class="fil0" d="M20 57l275 275 -274 273 -20 20c-1,3 -1,5 -1,8 0,16 13,29 29,29 4,0 8,0 12,-2l15 -15 313 -313 -312 -313 -17 -17c-4,-1 -7,-2 -11,-2 -16,0 -29,13 -29,29 0,3 1,6 1,9l19 19z"/>
  <path class="fil0" d="M180 57l275 275 -274 273 -20 20c-1,3 -1,5 -1,8 0,16 13,29 29,29 4,0 8,0 12,-2l15 -15 313 -313 -312 -313 -17 -17c-4,-1 -7,-2 -11,-2 -16,0 -29,13 -29,29 0,3 1,6 1,9l19 19z"/>
 </g>
</svg>
